<!DOCTYPE svg PUBLIC "-//W3C//DTD SVG 1.1//EN" "http://www.w3.org/Graphics/SVG/1.1/DTD/svg11.dtd">
<!-- Uploaded to: SVG Repo, www.svgrepo.com, Transformed by: SVG Repo Mixer Tools -->
<svg xmlns="http://www.w3.org/2000/svg" xmlns:xlink="http://www.w3.org/1999/xlink" version="1.1" id="Layer_1" viewBox="0 0 489.03 489.03" xml:space="preserve" width="800px" height="800px" fill="#000000">
<g id="SVGRepo_bgCarrier" stroke-width="0"/>
<g id="SVGRepo_tracerCarrier" stroke-linecap="round" stroke-linejoin="round"/>
<g id="SVGRepo_iconCarrier"> <g> <rect x="24.542" y="330.077" style="fill:#403E43;" width="85.325" height="117.427"/> <rect x="380.521" y="330.077" style="fill:#403E43;" width="85.325" height="117.427"/> <polygon style="fill:#131615;" points="404.958,190.602 387.281,41.526 103.107,41.526 84.761,196.244 "/> <polygon style="fill:#5bb4ec;" points="126.788,176.345 134.89,78.186 347.271,78.186 355.372,176.345 "/> <polygon style="fill:#e60532;" points="78.903,186.82 0,173.058 0,127.185 78.903,127.185 "/> <polygon style="fill:#e60532;" points="410.128,186.82 489.03,173.058 489.03,127.185 410.128,127.185 "/> <path style="fill:#e60532;" d="M65.829,309.603v-85.007c0-31.033,25.391-56.424,56.424-56.424h245.882 c31.033,0,56.424,25.391,56.424,56.424v85.007H65.829z"/> <circle style="fill:#FFF0BD;" cx="129.991" cy="227.168" r="29.298"/> <circle style="fill:#FFF0BD;" cx="358.526" cy="227.168" r="29.298"/> <g> <path d="M192.656,317.103c-4.143,0-7.5-3.357-7.5-7.5V202.695c0-4.143,3.357-7.5,7.5-7.5s7.5,3.357,7.5,7.5v106.907 C200.156,313.745,196.799,317.103,192.656,317.103z"/> </g> <g> <path d="M225.936,317.103c-4.143,0-7.5-3.357-7.5-7.5V202.695c0-4.143,3.357-7.5,7.5-7.5s7.5,3.357,7.5,7.5v106.907 C233.436,313.745,230.078,317.103,225.936,317.103z"/> </g> <g> <path d="M262.912,317.103c-4.143,0-7.5-3.357-7.5-7.5V202.695c0-4.143,3.357-7.5,7.5-7.5s7.5,3.357,7.5,7.5v106.907 C270.412,313.745,267.055,317.103,262.912,317.103z"/> </g> <g> <path d="M299.89,317.103c-4.143,0-7.5-3.357-7.5-7.5V202.695c0-4.143,3.357-7.5,7.5-7.5s7.5,3.357,7.5,7.5v106.907 C307.39,313.745,304.032,317.103,299.89,317.103z"/> </g> <rect x="65.829" y="309.603" style="fill:#161d1b;" width="358.731" height="48.167"/> <rect x="424.56" y="256.149" style="fill:#131615;" width="41.286" height="101.621"/> <rect x="24.542" y="256.149" style="fill:#131615;" width="41.286" height="101.621"/> <g style="opacity:0.24;"> <rect x="49.888" y="357.77" style="fill:#1D1D20;" width="59.979" height="89.734"/> <path style="fill:#1D1D20;" d="M327.302,41.526l16.535,144.108c12.641,10.37,20.744,26.094,20.744,136.391v35.745h41.286l0,0v4.66 v85.074h59.979V357.77v-27.693v-73.928H424.56v-31.554c0-17.527-8.103-33.252-20.744-43.621L387.281,41.526H327.302z"/> </g> <polygon style="opacity:0.46;fill:#FFFFFF;" points="215.894,78.186 280.953,78.186 253.352,168.171 187.636,168.171 "/> </g> </g>
</svg>